CATALOG 3898347789120
FILE "C:\MYAUDIO1.WAV" WAVE
  TRACK 01 AUDIO
    ISRC ABCDE1234567
    INDEX 01 00:00:00
    INDEX 02 02:00:00
    INDEX 03 04:00:00
FILE "C:\MYAUDIO2.WAV" WAVE
  TRACK 02 AUDIO
    ISRC XYZZY0000000
    INDEX 01 00:00:00
  TRACK 03 AUDIO
    ISRC 123456789012
    INDEX 00 03:00:00
    INDEX 01 03:02:00
    INDEX 02 05:34:32
    INDEX 03 08:12:49
    INDEX 04 10:01:74